<svg xmlns="http://www.w3.org/2000/svg" width="33" height="35" fill="none">
  <path fill="#fff" d="M13.5 0c-2.072 0-3.75 1.865-3.75 4.167v2.5h-6c-1.658 0-3 1.491-3 3.333v6.667H3c2.072 0 3.75 1.865 3.75 4.166C6.75 23.135 5.072 25 3 25H.75v6.667c0 1.841 1.342 3.333 3 3.333h6v-2.5c0-2.302 1.678-4.167 3.75-4.167s3.75 1.865 3.75 4.167V35h6c1.657 0 3-1.492 3-3.333V25h2.25c2.072 0 3.75-1.865 3.75-4.167 0-2.301-1.678-4.166-3.75-4.166h-2.25V10c0-1.842-1.343-3.333-3-3.333h-6v-2.5C17.25 1.865 15.572 0 13.5 0Z"/>
</svg>